<svg width="66" height="363" viewBox="0 0 66 363" fill="none" xmlns="http://www.w3.org/2000/svg">
<line x1="32" y1="363" x2="32" y2="213" stroke="#505946" stroke-width="6"/>
<line x1="32" y1="150" x2="32" stroke="#505946" stroke-width="6"/>
<path d="M61.875 169.297C61.875 187.344 35.1166 201.951 33.9771 202.555C33.6768 202.716 33.341 202.801 33 202.801C32.659 202.801 32.3232 202.716 32.0229 202.555C30.8834 201.951 4.125 187.344 4.125 169.297C4.12978 165.059 5.81537 160.996 8.81199 157.999C11.8086 155.003 15.7621 154.005 20 154C25.3238 154 30.0945 160.13 33 164C35.9055 160.13 40.6762 154 46 154C50.2379 154.005 54.1914 155.003 57.188 157.999C60.1846 160.996 61.8702 165.059 61.875 169.297Z" fill="#505946"/>
</svg>
